<mxfile host="app.diagrams.net" modified="2023-11-07T19:55:16.684Z" agent="Mozilla/5.0 (Macintosh; Intel Mac OS X 10_15_7) AppleWebKit/537.36 (KHTML, like Gecko) Chrome/118.0.0.0 Safari/537.36" version="22.0.8" etag="s9vzqUSyRokQF22VO68Q" type="github">
  <diagram name="Page-1" id="KLoelXK7U7MeVNYgkrvq">
    <mxGraphModel>
      <root>
        <mxCell id="0" />
        <mxCell id="1" parent="0" />
      </root>
    </mxGraphModel>
  </diagram>
</mxfile>
